# xmcd
#
# Track frame offsets:
# 150
# 19545
# 35872
# 47807
# 61830
# 76087
# 89872
# 106820
# 119652
# 134665
# 147960
# 161742
# 179825
# 192409
#
# Disc length: 2711 seconds
#
#
# Revision: 0
# Processed by: cddbd v1.5.2PL0 Copyright (c) Steve Scherf et al.
# Submitted via: FreeRIP 2.944 
#
DISCID=d10a950e
DTITLE=Liu e Léu - Ano 2000
DYEAR=2000
DGENRE=Sertanejo
TTITLE0=Sementinha
TTITLE1=Velho pouso de boiada
TTITLE2=Verdadeiro amor
TTITLE3=O mineiro e o italiano
TTITLE4=Prato do dia
TTITLE5=Plenilunio
TTITLE6=Berrante de ouro
TTITLE7=Mãe de carvão
TTITLE8=Jeitão de caboclo
TTITLE9=Inverno na primavera
TTITLE10=Ano 2000
TTITLE11=Caminheiro
TTITLE12=Buscando a felicidade
TTITLE13=Pé de rosa
EXTD=
EXTT0=
EXTT1=
EXTT2=
EXTT3=
EXTT4=
EXTT5=
EXTT6=
EXTT7=
EXTT8=
EXTT9=
EXTT10=
EXTT11=
EXTT12=
EXTT13=
PLAYORDER=
